<svg width="36" height="36" viewBox="0 0 36 36" fill="none" xmlns="http://www.w3.org/2000/svg">
<path d="M31.5 27V18C31.5 12.3754 31.5 9.5631 30.0676 7.5916C29.605 6.9549 29.0451 6.39496 28.4083 5.93236C26.4369 4.5 23.6246 4.5 18 4.5C12.3754 4.5 9.5631 4.5 7.5916 5.93236C6.9549 6.39496 6.39497 6.9549 5.93237 7.5916C4.5 9.5631 4.5 12.3754 4.5 18V27" stroke="white" stroke-width="2.25"/>
<path d="M33 23.25V26.25" stroke="white" stroke-width="2.25" stroke-linecap="round"/>
<path d="M3 23.25V26.25" stroke="white" stroke-width="2.25" stroke-linecap="round"/>
<path d="M12 20.7669C12 19.6203 12 19.047 11.7379 18.6484C11.606 18.4477 11.4309 18.282 11.2266 18.1642C10.8206 17.9302 10.2722 17.9844 9.17541 18.0925C7.3273 18.2746 6.40326 18.3658 5.74105 18.8646C5.40591 19.1172 5.12457 19.4389 4.91469 19.81C4.5 20.5432 4.5 21.5092 4.5 23.4414V25.7899C4.5 27.7027 4.5 28.6591 4.92297 29.3979C5.08128 29.6743 5.27971 29.9236 5.51124 30.1369C6.12978 30.7071 7.03266 30.8851 8.8384 31.2412C10.1092 31.4917 10.7445 31.617 11.2135 31.3531C11.3865 31.2558 11.5394 31.1239 11.6636 30.9651C12 30.5347 12 29.8617 12 28.5156V20.7669Z" stroke="white" stroke-width="2.25"/>
<path d="M24 20.7669C24 19.6203 24 19.047 24.262 18.6484C24.394 18.4477 24.5691 18.282 24.7734 18.1642C25.1795 17.9302 25.7279 17.9844 26.8247 18.0925C28.6727 18.2746 29.5968 18.3658 30.2589 18.8646C30.5941 19.1172 30.8754 19.4389 31.0852 19.81C31.5 20.5432 31.5 21.5092 31.5 23.4414V25.7899C31.5 27.7027 31.5 28.6591 31.077 29.3979C30.9187 29.6743 30.7203 29.9236 30.4887 30.1369C29.8702 30.7071 28.9674 30.8851 27.1616 31.2412C25.8909 31.4917 25.2555 31.617 24.7866 31.3531C24.6135 31.2558 24.4605 31.1239 24.3365 30.9651C24 30.5347 24 29.8617 24 28.5156V20.7669Z" stroke="white" stroke-width="2.25"/>
</svg>
