<svg width="34" height="34" viewBox="0 0 34 34" fill="none" xmlns="http://www.w3.org/2000/svg">
<path d="M2.8335 17C2.8335 10.3218 2.8335 6.98269 4.90816 4.90804C6.98281 2.83337 10.3219 2.83337 17.0002 2.83337C23.6783 2.83337 27.0176 2.83337 29.0921 4.90804C31.1668 6.98269 31.1668 10.3218 31.1668 17C31.1668 23.6782 31.1668 27.0174 29.0921 29.092C27.0176 31.1667 23.6783 31.1667 17.0002 31.1667C10.3219 31.1667 6.98281 31.1667 4.90816 29.092C2.8335 27.0174 2.8335 23.6782 2.8335 17Z" stroke="white" stroke-width="2.125"/>
<path d="M8.5 22.3834L10.1191 24.0834L14.1667 19.8334" stroke="white" stroke-width="2.125" stroke-linecap="round" stroke-linejoin="round"/>
<path d="M8.5 12.4666L10.1191 14.1666L14.1667 9.91663" stroke="white" stroke-width="2.125" stroke-linecap="round" stroke-linejoin="round"/>
<path d="M18.4165 12.75H25.4998" stroke="white" stroke-width="2.125" stroke-linecap="round"/>
<path d="M18.4165 22.6666H25.4998" stroke="white" stroke-width="2.125" stroke-linecap="round"/>
</svg>
